<svg xmlns="http://www.w3.org/2000/svg" viewBox="0 0 667.8 486.1">
    <path fill="#556B2F" stroke="#000" stroke-miterlimit="10"
          d="M16.4 188.4c13.6-48.8 32.9-118.2 89-137.9 75.8-26.6 159.1 58 172.6 71.7 100 101.5 121.2 280 67.3 315.9-30.1 20-91.5.9-115.1-35.8-32.9-51.1 22.2-113.2-8.7-147.7C192.2 222 105 236.2 91.3 270.9c-15.2 38.3 64.9 86 48.9 118.3-11.5 23.2-68 29.5-102.1 6.5-66.8-45.1-26.6-189.7-21.7-207.3zm132.4-4.3c16.4-.7 52.7-2.2 59.7-20.6 8.1-21.2-23.2-62.7-60.8-66.2-42.5-4-82.7 41.5-76 64.1 6.6 21.7 57.4 23.5 77.1 22.7zM616.5 15.6c65.4 41.1 50.3 139.6 48.6 150.5-5.6 36.2-27 99.2-72.4 112.4-32.8 9.5-54.1-14-68.6-1.9-27.5 23.1 45.5 112.1 12.4 168.6-20 34.1-75.7 51.3-107.6 34.3-41.8-22.2-36.4-99.4-27.6-222.9 8.6-120.7 13.7-181.8 58.1-219.1 38-32 106.5-53.8 157.1-21.9zm-74.3 185.7c28.9 4 64.1-13.5 73.4-47.6 9.4-34.5-12.2-69.5-43.8-80-25.7-8.5-56.4-.3-73.4 22.9-20 27.2-12.3 63.2 5.7 83.8 3.7 4.1 16.8 18 38.1 20.9z"/>
</svg>
